<svg width="19" height="16" viewBox="0 0 19 16" fill="none" xmlns="http://www.w3.org/2000/svg">
<path d="M13 15V13.3333C13 12.4493 12.6629 11.6014 12.0627 10.9763C11.4626 10.3512 10.6487 10 9.8 10H4.2C3.35131 10 2.53737 10.3512 1.93726 10.9763C1.33714 11.6014 1 12.4493 1 13.3333V15" stroke="#EB5757" stroke-linecap="round" stroke-linejoin="round"/>
<path d="M7 7C8.65685 7 10 5.65685 10 4C10 2.34315 8.65685 1 7 1C5.34315 1 4 2.34315 4 4C4 5.65685 5.34315 7 7 7Z" stroke="#EB5757" stroke-linecap="round" stroke-linejoin="round"/>
<path d="M14 5L18 9" stroke="#EB5757" stroke-linecap="round" stroke-linejoin="round"/>
<path d="M18 5L14 9" stroke="#EB5757" stroke-linecap="round" stroke-linejoin="round"/>
</svg>
